<svg width="832" height="96" viewBox="0 0 832 96" fill="none" xmlns="http://www.w3.org/2000/svg">
<path d="M196.54 23.1399C190.1 23.1399 184.89 17.9299 184.89 11.6499C184.89 5.37012 190.1 0 196.54 0C202.979 0 208.029 5.20996 208.029 11.6499C208.029 18.0901 202.819 23.1399 196.54 23.1399Z" fill="black"/>
<path d="M300.971 23.1399C294.53 23.1399 289.32 17.9299 289.32 11.6499C289.32 5.37012 294.53 0 300.971 0C307.41 0 312.46 5.20996 312.46 11.6499C312.46 18.0901 307.25 23.1399 300.971 23.1399Z" fill="black"/>
<path d="M186.44 31.23H206.471V95.25H186.44V31.23Z" fill="black"/>
<path d="M223.23 2.83008H279.95V20.3H243.261V42.8701H274.131V60.3401H243.261V95.25H223.23V2.83008Z" fill="black"/>
<path d="M290.88 31.23H310.91V95.25H290.88V31.23Z" fill="black"/>
<path d="M69.8496 42.8701C69.8496 42.8701 69.8496 45.9402 69.8096 46.9402L69.7705 47.9512C69.7295 48.9822 69.6758 49.999 69.5703 51.01C69.1904 54.6101 68.3896 58.01 66.75 60.9001C66.2803 61.73 65.7998 62.54 65.2197 63.3101C61.7197 67.98 56.3896 71.48 49.75 72.46C48.96 72.5801 47.3604 72.6702 46.5596 72.6702C45.7598 72.6702 44.1602 72.5701 43.3701 72.46C36.7197 71.48 31.4004 67.98 27.9004 63.3101C27.3301 62.54 26.8496 61.74 26.3701 60.9001C24.7305 58.01 23.9404 54.6101 23.5498 51.01C23.5205 50.7234 23.4941 50.4363 23.4717 50.1487C23.457 49.9626 23.4443 49.7761 23.4316 49.5894C23.375 48.7153 23.3428 47.834 23.3096 46.9402C23.2949 46.5713 23.2852 45.9209 23.2793 45.2468C23.2754 44.8369 23.2734 44.418 23.2725 44.0483C23.2695 43.3782 23.2695 42.8701 23.2695 42.8701V2.83008H0V46.53C0 50.79 0.360352 55.8501 1.2002 59.8101C1.66992 62.03 2.37012 64.23 3.20996 66.3501C4.05957 68.51 5.04004 70.5901 6.09961 72.4502C7.49023 74.8801 9.11035 77.21 10.9697 79.4001L11.1963 79.6653L11.5176 80.04L11.7598 80.3193C12.0352 80.6355 12.3154 80.9492 12.6104 81.26C12.8408 81.5071 13.0752 81.7476 13.3115 81.9849C13.5947 82.2693 13.8799 82.5491 14.167 82.8298L14.3604 83.02C21.8096 90.1902 31.5098 94.6702 41.6602 95.7002C42.2559 95.7588 43.1445 95.8196 44.041 95.8667C44.9814 95.916 45.9307 95.9502 46.5596 95.9502C47.79 95.9502 50.2402 95.8201 51.46 95.7002C61.6104 94.6702 71.3096 90.1902 78.7598 83.02L79.2568 82.543L79.5137 82.2922C79.8545 81.9556 80.1904 81.6128 80.5195 81.26C81.0996 80.6501 81.6201 80.03 82.1602 79.4001C84.0303 77.21 85.6396 74.8801 87.0303 72.4502C88.0996 70.5901 89.0801 68.52 89.9297 66.3501C90.7598 64.23 91.4697 62.03 91.9297 59.8101C92.7695 55.8401 93.1299 50.79 93.1299 46.53V42.8401H81.4902V31.21H93.1201V19.5701H81.4805V10.8401H72.75V19.5701H81.4805V31.2002H69.8496V42.8701Z" fill="black"/>
<path d="M90.21 2.1001H84.3896V7.92017H90.21V2.1001Z" fill="black"/>
<path d="M149.8 95.25H169.689V51.7798C169.689 39.0198 161.729 29.6199 149.49 29.0798C135.87 28.48 129.05 36.98 129.05 36.98V31.1599H109.88V95.1799H129.78V57.6099L129.782 56.8154C129.783 56.4526 129.785 56.0598 129.79 55.8599C129.81 55.2698 129.83 54.6899 129.899 54.1099C130.06 52.5698 130.41 51.0999 131.11 49.8599C131.31 49.5 131.52 49.1599 131.77 48.8198C133.27 46.8098 135.56 45.3098 138.42 44.8899C138.59 44.865 138.847 44.8425 139.104 44.825C139.361 44.8074 139.62 44.7949 139.79 44.7898C140.13 44.7898 140.82 44.8298 141.16 44.8899C144.02 45.3098 146.3 46.8098 147.81 48.8198C148.06 49.1499 148.26 49.5 148.47 49.8599C149.18 51.0999 149.52 52.5698 149.68 54.1099C149.739 54.6814 149.76 55.2527 149.78 55.8335V55.8599C149.8 56.2898 149.8 57.6099 149.8 57.6099V95.25Z" fill="black"/>
<path d="M435.41 94.8101V3.27002H424.16V75.8L369.351 3.27002H358.23V94.8101H369.48V22.9199L424.431 94.8101H435.41Z" fill="black"/>
<path fill-rule="evenodd" clip-rule="evenodd" d="M479.891 28.6101C497.87 28.8701 508.21 42.7002 508.21 65.8401H461.54C461.54 76.4402 468.13 85.8801 479.38 85.8801C487.91 85.8801 495.41 81.74 500.58 74.8901L506.4 81.2302C504.71 84.8501 494.5 95.8401 479.38 95.8401C472.391 95.8401 465.54 93.26 460.5 88.8601C450.42 79.8101 447.05 62.74 452.74 48C457.26 35.8501 466.83 28.74 478.72 28.6101H479.891ZM461.79 56.79H496.83C496.57 46.5801 488.94 38.5601 479.38 38.5601C469.82 38.5601 462.44 46.1902 461.79 56.79Z" fill="black"/>
<path d="M540.271 95.8401C546.48 95.8401 549.2 94.03 553.86 90.4102L548.69 84.8501C547.271 86.27 544.681 87.05 542.74 87.05C537.57 87.05 535.24 83.9402 535.24 76.96V38.8201H551.92V29.6401H534.98V12.3201H524.381V29.6401H514.94V38.8201H523.98V78.3901C523.98 88.99 530.311 95.8401 540.271 95.8401Z" fill="black"/>
<path d="M656.63 29.6399L637.229 94.8098H622.369L607.76 46.1899L593.279 94.8098H578.409L559.02 29.6399H570.27V30.0298L586.159 85.1099L602.069 29.6399H613.579L629.479 85.1099L645.51 29.6399H656.63Z" fill="black"/>
<path fill-rule="evenodd" clip-rule="evenodd" d="M691.93 28.6101C672.399 28.6101 660.51 43.74 660.51 62.2302C660.51 80.7102 672.41 95.8401 691.93 95.8401C711.45 95.8401 723.35 80.7202 723.35 62.2302C723.35 43.74 711.46 28.6101 691.93 28.6101ZM691.939 38.1802C705.64 38.7002 712.49 48.52 712.49 62.2302C712.49 75.8101 705.64 85.76 691.939 86.28C678.229 85.76 671.38 75.8 671.38 62.2302C671.38 48.52 678.229 38.7002 691.939 38.1802Z" fill="black"/>
<path d="M768.851 39.8601C767.04 38.9602 765.36 38.5701 763.42 38.5701C757.86 38.5701 752.69 41.55 749.851 46.4502C748.3 49.3 748.04 52.53 747.91 55.76C747.78 56.4001 747.78 58.4702 747.78 58.4702V94.8H736.53V29.6401H747.65V37.52C751.53 31.8401 757.99 28.6001 764.84 28.6001C766.391 28.6001 768.07 29.1201 768.851 29.5V39.8601Z" fill="black"/>
<path d="M790.32 54.98V3.27002H779.07V94.8101H790.32V64.9399L817.851 94.8101H831.811L799.88 60.03L826.511 29.6401H812.551L790.32 54.98Z" fill="black"/>
</svg>
